<svg xmlns="http://www.w3.org/2000/svg" width="355.8295163311185" height="259.378125" viewBox="0 0 350 255.1287613406476"
    class="looka-1j8o68f">
    <defs id="SvgjsDefs1061"></defs>
    <g id="SvgjsG1062" featurekey="mugSzh-0"
        transform="matrix(4.9278423355131675,0,0,4.9278423355131675,96.15452321923391,0)"
        fill="#39e991">
        <g xmlns="http://www.w3.org/2000/svg" display="none">
            <rect x="-233.895" y="-85.339" display="inline" fill="#39e991" width="435.561"
                height="207"></rect>
        </g>
        <g xmlns="http://www.w3.org/2000/svg" display="none">
            <g display="inline">
                <g>
                    <path
                        d="M16,1c7.281,0,13.205,5.774,13.205,12.871c0,4.104-1.952,7.869-5.354,10.33l-0.414,0.299v0.511v4.938l-4.158-3.248     l-0.355-0.277l-0.443,0.082c-0.842,0.156-1.677,0.235-2.481,0.235c-7.281,0-13.205-5.774-13.205-12.871C2.795,6.774,8.719,1,16,1      M16,0C8.155,0,1.795,6.21,1.795,13.871S8.155,27.742,16,27.742c0.911,0,1.8-0.092,2.664-0.252L24.437,32v-6.988     c3.493-2.527,5.768-6.569,5.768-11.141C30.205,6.21,23.845,0,16,0L16,0z"></path>
                </g>
            </g>
            <g display="inline">
                <line fill="none" stroke="#39e991" stroke-miterlimit="10" x1="3.141" y1="8.49"
                    x2="11.297" y2="8.49"></line>
                <line fill="none" stroke="#39e991" stroke-miterlimit="10" x1="2.702" y1="15.837"
                    x2="17.641" y2="15.837"></line>
                <line fill="none" stroke="#39e991" stroke-miterlimit="10" x1="3.565" y1="19.51"
                    x2="14.922" y2="19.51"></line>
            </g>
        </g>
        <g xmlns="http://www.w3.org/2000/svg" display="none">
            <g display="inline">
                <g>
                    <path
                        d="M16,1c7.281,0,13.205,5.774,13.205,12.871c0,4.104-1.952,7.869-5.354,10.33l-0.414,0.299v0.511v4.938l-4.158-3.248     l-0.355-0.277l-0.443,0.082c-0.842,0.156-1.677,0.235-2.481,0.235c-7.281,0-13.205-5.774-13.205-12.871C2.795,6.774,8.719,1,16,1      M16,0C8.155,0,1.795,6.21,1.795,13.871S8.155,27.742,16,27.742c0.911,0,1.8-0.092,2.664-0.252L24.437,32v-6.988     c3.493-2.527,5.768-6.569,5.768-11.141C30.205,6.21,23.845,0,16,0L16,0z"></path>
                </g>
            </g>
            <g display="inline">
                <line fill="none" stroke="#39e991" stroke-miterlimit="10" x1="3.141" y1="8.49"
                    x2="11.297" y2="8.49"></line>
                <line fill="none" stroke="#39e991" stroke-miterlimit="10" x1="2.702" y1="15.837"
                    x2="17.641" y2="15.837"></line>
                <line fill="none" stroke="#39e991" stroke-miterlimit="10" x1="3.565" y1="19.51"
                    x2="14.922" y2="19.51"></line>
            </g>
        </g>
        <g xmlns="http://www.w3.org/2000/svg">
            <g>
                <path
                    d="M16,27.742c0.911,0,1.8-0.092,2.664-0.252L24.437,32v-6.988c3.494-2.527,5.768-6.569,5.768-11.141    C30.205,6.21,23.845,0,16,0C8.155,0,1.795,6.21,1.795,13.871S8.155,27.742,16,27.742z M4.667,9.49h6.631v-2H5.725    C7.896,4.194,11.686,2,16,2c6.73,0,12.205,5.325,12.205,11.871c0,3.779-1.801,7.249-4.94,9.52l-0.828,0.599v1.022V27.9    l-2.542-1.986l-0.71-0.555l-0.886,0.164c-0.782,0.145-1.556,0.219-2.299,0.219c-3.992,0-7.531-1.882-9.76-4.772h8.912v-2H4.994    c-0.334-0.679-0.601-1.391-0.799-2.133h13.446v-2H3.845c-0.027-0.319-0.05-0.64-0.05-0.966C3.795,12.323,4.11,10.847,4.667,9.49z"></path>
            </g>
        </g>
        <g xmlns="http://www.w3.org/2000/svg" display="none">
            <g display="inline">
                <g>
                    <path
                        d="M16,0.5c7.557,0,13.705,5.998,13.705,13.371c0,4.266-2.027,8.179-5.561,10.736l-0.207,0.15v0.255v5.963l-4.966-3.879     l-0.177-0.139l-0.221,0.041C17.7,27.16,16.834,27.242,16,27.242c-7.557,0-13.705-5.998-13.705-13.371     C2.295,6.498,8.443,0.5,16,0.5 M16,0C8.155,0,1.795,6.21,1.795,13.871S8.155,27.742,16,27.742c0.911,0,1.8-0.092,2.664-0.252     L24.437,32v-6.988c3.493-2.527,5.768-6.569,5.768-11.141C30.205,6.21,23.845,0,16,0L16,0z"></path>
                </g>
            </g>
            <g display="inline">
                <line fill="none" stroke="#39e991" stroke-width="0.5" stroke-miterlimit="10"
                    x1="3.141" y1="8.49" x2="11.297" y2="8.49"></line>
                <line fill="none" stroke="#39e991" stroke-width="0.5" stroke-miterlimit="10"
                    x1="2.702" y1="15.837" x2="17.641" y2="15.837"></line>
                <line fill="none" stroke="#39e991" stroke-width="0.5" stroke-miterlimit="10"
                    x1="3.565" y1="19.51" x2="14.922" y2="19.51"></line>
            </g>
        </g>
    </g>
    <g id="SvgjsG1063" featurekey="PPkF4s-0"
        transform="matrix(3.094606584633023,0,0,3.094606584633023,-4.765695497908393,163.70291793314505)"
        fill="#f1f1f1">
        <path
            d="M11.87 11.22 q-0.51 0.8 -1.33 1.14 q1 0.34 1.72 1.3 t0.72 2.1 q0 2.26 -1.44 3.25 t-3.68 0.99 l-6.32 0 l0 -14.62 l6.08 0 q4.76 0 4.76 4.06 q0 0.98 -0.51 1.78 z M7.68 11.18 q0.78 0 1.15 -0.48 t0.37 -1.14 q0 -0.58 -0.44 -1.01 t-1.06 -0.43 l-2.98 0 l0 3.06 l2.96 0 z M9.3 16.78 q0.52 -0.48 0.52 -1.18 t-0.52 -1.18 t-1.5 -0.48 l-3.08 0 l0 3.32 l3.14 0 q0.92 0 1.44 -0.48 z M18.240000000000002 7.369999999999999 q-0.48 0.47 -1.16 0.47 q-0.7 0 -1.19 -0.47 t-0.49 -1.15 q0 -0.66 0.49 -1.13 t1.19 -0.47 q0.68 0 1.16 0.47 t0.48 1.13 q0 0.68 -0.48 1.15 z M15.58 9.02 l3 0 l0 10.98 l-3 0 l0 -10.98 z M24.02 19.51 q-1.38 -0.77 -2.19 -2.09 t-0.81 -2.88 t0.81 -2.87 t2.18 -2.08 t2.99 -0.77 q1.74 0 3.15 0.83 t2.25 2.37 l-2.7 1.06 q-0.48 -0.82 -1.18 -1.23 t-1.52 -0.41 q-1.3 0 -2.15 0.88 t-0.85 2.22 t0.86 2.22 t2.16 0.88 q1.8 0 2.78 -1.6 l2.54 1 q-1.58 3.24 -5.32 3.24 q-1.62 0 -3 -0.77 z M38.239999999999995 16.08 q0 0.7 0.24 1.17 t1.12 0.47 q0.4 0 0.76 -0.04 l0 2.52 q-0.72 0.08 -1.34 0.08 q-1.28 0 -2.07 -0.21 t-1.23 -0.81 t-0.44 -1.72 l0 -6.1 l-1.34 0 l0 -2.62 l1.34 0 l0 -2.94 l2.96 0 l0 2.94 l2.2 0 l0 2.62 l-2.2 0 l0 4.64 z M45.19 19.49 q-1.37 -0.77 -2.17 -2.09 t-0.8 -2.88 q0 -1.54 0.8 -2.86 t2.17 -2.09 t2.99 -0.77 t3 0.77 t2.19 2.09 t0.81 2.86 q0 1.56 -0.81 2.88 t-2.19 2.09 t-3 0.77 t-2.99 -0.77 z M46.66 11.83 q-0.7 0.41 -1.1 1.12 t-0.4 1.57 q0 0.9 0.39 1.61 t1.08 1.12 t1.55 0.41 q0.84 0 1.53 -0.41 t1.09 -1.13 t0.4 -1.6 q0 -0.86 -0.4 -1.57 t-1.09 -1.12 t-1.53 -0.41 q-0.82 0 -1.52 0.41 z M61.86 11.87 q-0.86 0.21 -1.58 0.99 t-0.72 2.28 l0 4.86 l-2.98 0 l0 -11 l2.98 0 l0 1.46 q0.74 -0.98 1.81 -1.33 t1.95 -0.33 l0 2.92 q-0.6 -0.06 -1.46 0.15 z M76.37 19.18 q-1.85 1.1 -4.03 1.1 q-2.14 0 -3.95 -1.02 t-2.87 -2.76 t-1.06 -3.8 q0 -2.04 1.06 -3.78 t2.87 -2.76 t3.95 -1.02 q2.16 0 4.02 1.09 t2.92 2.91 l-2.94 1.14 q-0.7 -1 -1.77 -1.64 t-2.23 -0.64 q-1.28 0 -2.36 0.65 t-1.71 1.73 t-0.63 2.32 t0.63 2.33 t1.71 1.74 t2.36 0.65 q1.16 0 2.23 -0.65 t1.77 -1.67 l2.94 1.14 q-1.06 1.84 -2.91 2.94 z M90.53 10.02 q1.03 1.22 1.03 3.48 l0 6.5 l-3.04 0 l0 -6.5 q0 -1.18 -0.59 -1.7 t-1.55 -0.52 q-0.82 0 -1.48 0.65 t-0.62 2.25 l0 5.82 l-2.98 0 l0 -15.14 l2.98 0 l0 5.12 q0.54 -0.54 1.36 -0.86 t1.58 -0.32 q2.28 0 3.31 1.22 z M102.82000000000001 18.9 q-0.38 0.52 -1.31 0.93 t-2.03 0.41 q-1.7 0 -2.95 -0.76 t-1.91 -2.07 t-0.66 -2.91 t0.66 -2.91 t1.91 -2.07 t2.95 -0.76 q1.14 0 2.01 0.39 t1.33 0.99 l0 -1.14 l2.96 0 l0 11 l-2.96 0 l0 -1.1 z M102.12 12.25 q-0.82 -0.87 -2.2 -0.87 q-1.4 0 -2.21 0.87 t-0.81 2.25 q0 1.34 0.83 2.22 t2.19 0.88 q1.4 0 2.21 -0.83 t0.81 -2.27 q0 -1.38 -0.82 -2.25 z M112.44000000000001 16.08 q0 0.7 0.24 1.17 t1.12 0.47 q0.4 0 0.76 -0.04 l0 2.52 q-0.72 0.08 -1.34 0.08 q-1.28 0 -2.07 -0.21 t-1.23 -0.81 t-0.44 -1.72 l0 -6.1 l-1.34 0 l0 -2.62 l1.34 0 l0 -2.94 l2.96 0 l0 2.94 l2.2 0 l0 2.62 l-2.2 0 l0 4.64 z"></path>
    </g>
    <g id="SvgjsG1064" featurekey="uwAHB0-0"
        transform="matrix(1.0167177590507988,0,0,1.0167177590507988,33.962948632373745,234.42838666100926)"
        fill="#39e991">
        <path
            d="M8.34 5.48 q3.14 0 4.88 2.22 l-1.08 0.9 q-0.6 -0.9 -1.6 -1.41 t-2.2 -0.51 q-2.64 0 -4.3 1.74 t-1.7 4.5 q0 2.74 1.67 4.47 t4.33 1.77 q1.14 0 2.32 -0.57 t1.86 -1.63 l1.08 0.82 q-1.88 2.58 -5.26 2.58 q-3.28 -0.02 -5.27 -2.12 t-2.05 -5.32 q0 -3.26 2.05 -5.33 t5.27 -2.11 z M28.007999999999996 5.84 l0 6.24 l7.92 0 l0 -6.24 l1.32 0 l0 14.16 l-1.32 0 l0 -6.72 l-7.92 0 l0 6.72 l-1.32 0 l0 -14.16 l1.32 0 z M53.455999999999996 15.04 l6.5 0 l-3.2 -7.76 z M57.495999999999995 5.84 l5.96 14.16 l-1.48 0 l-1.54 -3.76 l-7.5 0 l-1.6 3.76 l-1.38 0 l6.18 -14.16 l1.36 0 z M85.46399999999998 5.84 l0 1.2 l-4.84 0 l0 12.96 l-1.32 0 l0 -12.96 l-4.84 0 l0 -1.2 l11 0 z M113.69999999999997 5.84 l3.52 12.54 l0.04 0 l3.58 -12.54 l1.68 0 l3.58 12.54 l0.04 0 l3.52 -12.54 l1.36 0 l-4.12 14.14 l-0.02 0.02 l-1.6 0 l-3.58 -12.6 l-0.04 0 l-3.58 12.6 l-1.62 0 l-4.12 -14.16 l1.36 0 z M145.04799999999997 5.84 l0 14.16 l-1.32 0 l0 -14.16 l1.32 0 z M168.896 5.84 l0 1.2 l-4.84 0 l0 12.96 l-1.32 0 l0 -12.96 l-4.84 0 l0 -1.2 l11 0 z M183.06399999999996 5.84 l0 6.24 l7.92 0 l0 -6.24 l1.32 0 l0 14.16 l-1.32 0 l0 -6.72 l-7.92 0 l0 6.72 l-1.32 0 l0 -14.16 l1.32 0 z M224.55999999999997 5.84 l5.16 11.88 l5.16 -11.88 l1.88 0 l0 14.16 l-1.32 0 l0 -12.48 l-0.04 0 l-5.4 12.48 l-0.58 0 l-5.48 -12.48 l-0.04 0 l0 12.48 l-1.32 0 l0 -14.16 l1.98 0 z M259.828 5.84 l0 1.2 l-7.34 0 l0 5.04 l6.88 0 l0 1.2 l-6.88 0 l0 5.52 l7.66 0 l0 1.2 l-8.98 0 l0 -14.16 l8.66 0 z M275.45599999999996 18.2 q0.4 0 0.68 0.28 t0.28 0.68 t-0.28 0.68 t-0.68 0.28 t-0.68 -0.28 t-0.28 -0.68 t0.28 -0.68 t0.68 -0.28 z M274.856 5.84 l1.2 0 l0 10.44 l-1.2 0 l0 -10.44 z"></path>
    </g>
</svg>